<svg xmlns="http://www.w3.org/2000/svg" width="153" height="22" viewBox="0 0 153 22">
    <g fill="none" fill-rule="evenodd">
        <g>
            <g>
                <g>
                    <path fill="#FF643C" fill-rule="nonzero" d="M140.8 2.523c.385 0 .72.072 1.008.216.287.143.507.342.66.594.152.253.228.542.228.865 0 .32-.076.599-.229.84-.152.24-.37.425-.656.556-.285.132-.622.197-1.011.197h-.855V7.5h-1.11V2.523h1.965zm0 2.373c.262 0 .456-.063.584-.187.128-.124.191-.292.191-.504 0-.143-.027-.274-.082-.393-.054-.118-.14-.214-.256-.285-.116-.072-.262-.108-.437-.108h-.855v1.477h.855zm6.936 2.553V7.5h-1.19l-.899-1.777h-.741V7.5h-1.111V2.523h1.904c.382 0 .713.058.993.173.279.115.493.285.642.51.15.224.224.498.224.821 0 .36-.075.652-.226.875-.15.224-.368.4-.652.53l1.056 2.017zm-2.83-2.622h.793c.243 0 .43-.062.557-.186.127-.124.191-.296.191-.515 0-.223-.063-.397-.19-.52-.126-.125-.312-.187-.558-.187h-.793v1.408zm7.978.29c0 .5-.09.934-.271 1.303-.182.37-.434.653-.757.851-.324.198-.695.297-1.115.297-.421 0-.794-.099-1.12-.297-.324-.198-.577-.482-.758-.851-.181-.37-.272-.803-.272-1.302v-.209c0-.499.09-.933.27-1.304.18-.37.432-.654.756-.853.323-.198.696-.297 1.117-.297.42 0 .792.1 1.118.297.326.199.58.483.76.853.182.37.272.805.272 1.304v.209zm-1.124-.215c0-.496-.089-.876-.267-1.14-.177-.263-.43-.394-.759-.394-.332 0-.586.13-.76.393-.174.262-.261.642-.261 1.141v.216c0 .496.088.878.266 1.143.178.265.432.398.762.398.326 0 .577-.133.754-.4.177-.266.265-.647.265-1.141v-.216z" transform="translate(-296 -29) translate(-9) translate(305 29)"/>
                    <path fill="#FF643C" d="M87.587 10.275l.06.017c.08.047.131.132.133.225.031 2.461.918 7.855 2.824 9.17.422.29.866.368 1.353.233l.163-.052 1.018-.373.037-.007-1.622-8.138c-.014-.07.001-.14.04-.199.04-.058.102-.098.17-.11 1.102-.2 2.142.209 2.65 1.043.307.505.578 1.507.736 2.175 1.36-2.246 2.67-3.466 3.993-3.722 1.128-.218 2.217.05 3.15.773 1.925 1.49 3.063 4.82 3.382 9.902.004.072-.022.143-.071.196-.033.035-.075.06-.12.073l-.071.01h-.223c-.515 0-.939-.383-.986-.89-.312-3.36-1.289-5.925-2.614-6.861-.566-.401-1.181-.51-1.877-.334-1.768.447-3.11 4.087-3.775 7.344-.079.384-.397.673-.779.725l-.116.008h-.155c-.636 0-1.196-.379-1.452-.938l-.235.105c-.686.3-2.073.843-3.122.843-.733 0-1.42-.196-2.042-.582-3.01-1.867-3.237-7.12-3.253-8.155-.008-.644.434-1.268 1.282-1.815l.248-.15c.22-.125.99-.548 1.274-.516zM71.172.529c1.082-.464 2.143-.217 2.99.694 2.405 2.592-.684 7.54-2.407 10.041l-.527.755c.136 1.147.575 2.219.921 2.964.618-2.914 2.436-4.625 5.185-4.85 1.606-.13 2.718.696 3.594 1.521 2.785 2.626 2.797 8.426 2.771 9.562-.002.122-.088.223-.202.25l-.06.007h-.234c-.521 0-.942-.406-.96-.927-.077-2.205-.68-5.035-2.142-6.362-.635-.577-1.401-.843-2.275-.788-2.778.172-3.113 5.831-3.152 7.084l-.006.244c-.013.23-.116.43-.285.564-.17.135-.39.191-.604.154-.966-.167-1.827-.733-2.362-1.554l-.275-.433c-.665-1.077-1.484-2.612-2.137-4.493-2.302 4.038-6.881 6.513-9.984 6.513-.455 0-.903-.045-1.333-.135-3.11-.647-4.932-3.372-4.756-7.11.235-5.01 5.609-9.918 11.979-10.938.071-.012.143.007.2.05.057.043.094.108.102.18.076.68-.329 1.31-.986 1.532-5.074 1.717-7.554 5.63-7.804 8.832l-.014.217c-.037.785.032 3.402 2.451 4.114 2.673.787 7.792-1.631 9.43-5.189l-.082-.432C67.725 9.815 67.18 2.242 71.172.53zm59.42 11.87c1.282-1.643 3.586-2.562 5.479-2.187 1.254.25 2.15 1.032 2.459 2.147.279 1.01.106 1.985-.501 2.82-.845 1.165-2.568 2.03-5.125 2.576l.076.15c.191.36.583.925 1.432 1.18 1.406.421 3.537-.2 6.164-1.798.124-.075.283-.037.36.085.224.359.155.81-.152 1.066-1.942 1.626-3.865 2.64-5.562 2.935-.35.06-.69.09-1.02.09-.346 0-.679-.033-.997-.099-1.326-.276-2.351-1.106-2.965-2.402-.12-.251-.226-.504-.32-.755-.395.043-.698-.02-.922-.19-.309-.235-.41-.63-.457-1.043l-.015-.155-.055-1.195c-.007-.145.105-.268.25-.275.24-.011.492-.028.75-.05.107-1.338.662-2.31 1.122-2.9zm-11.278-1.213c1.198-1.112 3.533-1.326 5.098-.89 1.823.506 1.907 1.439 1.774 2.34l-.08.458c-.013.074-.058.14-.123.178-.065.039-.143.047-.215.024-2.467-.797-4.226-.777-4.687-.508-.056.032-.09.086-.096.15-.01.12.07.263.22.393.28.244.83.44 1.47.63l.661.189c.862.242 1.838.516 2.645.929.731.373 1.49 1.427 1.457 2.644-.026.946-.526 2.282-2.76 3.273-.724.322-1.442.453-2.133.453-2.23 0-4.165-1.37-5.05-2.113-1.492 1.134-2.852 1.739-4.57 2.037-.35.06-.691.09-1.021.09-.345 0-.678-.033-.996-.099-1.22-.253-2.71-1.523-3.13-3.179-.455.074-.82.005-1.083-.205-.256-.204-.405-.53-.453-.992l-.014-.18-.054-1.184c-.007-.145.105-.268.25-.275.24-.011.492-.028.75-.05.106-1.338.661-2.31 1.12-2.9 1.283-1.643 3.585-2.562 5.48-2.187 1.254.25 2.15 1.032 2.458 2.147.28 1.009.106 1.984-.5 2.82-.845 1.165-2.568 2.03-5.126 2.576l.106.245c.18.396.53 1.005 1.342 1.268 1.29.416 3.243-.162 5.803-1.719.064-.04.144-.049.216-.025.054.017.1.05.133.096l.028.049.024.056c.108.25.11.524.026.77.93.699 4.778 1.611 5.856.812l.078-.064c.138-.134.308-.438-.089-1.154-.264-.477-.966-.88-1.785-1.285l-1.12-.537c-1.217-.59-2.379-1.237-2.8-2.234-.615-1.451.517-2.502.89-2.847zm16.822.996c-.3 0-.64.052-1.007.156-1.714.486-2.323 1.847-2.472 2.593 1.102-.062 3.858-.428 4.626-1.317.213-.246.23-.625.04-.922-.214-.336-.634-.51-1.187-.51zm-22.298 0c-.3 0-.64.052-1.007.156-1.714.487-2.322 1.847-2.471 2.593 1.101-.062 3.857-.428 4.626-1.317.212-.246.229-.625.04-.922-.214-.336-.634-.51-1.188-.51zM73.083 3.097c-.208 0-.49.137-.673.24-.812.455-1.916 3.048-1.438 6.711 1.356-1.966 2.92-6.134 2.318-6.869-.048-.059-.121-.082-.207-.082zm10.688 4.247l.523-.317c1.117-.661 3.151-1.76 3.844-1.455.161.071.267.206.3.38.345 1.877-.494 2.323-1.593 2.815l-.411.184-2.126.966c-.035.016-.072.023-.109.023-.044 0-.087-.01-.127-.032-.054-.03-.095-.078-.117-.135l-.016-.06-.29-2.11c-.013-.103.035-.205.122-.26z" transform="translate(-296 -29) translate(-9) translate(305 29)"/>
                    <path fill="#3C4146" d="M12.629 6.093h3.77v.408c0 2.963-.003 5.927.004 8.89.001.353.009.721.102 1.057.28 1.007 1.058 1.643 2.136 1.697.517.026 1.068-.017 1.556-.176 1.006-.327 1.5-1.187 1.508-2.456l.005-2.378-.003-6.571c0-.221.16-.406.37-.445l.08-.007h3.29c.006.108.02.218.02.328v9.2c0 .903-.122 1.785-.483 2.622-.624 1.45-1.717 2.402-3.196 2.88-1.89.61-3.805.624-5.674-.077-2.21-.829-3.411-2.494-3.474-4.822-.089-3.33-.03-6.662-.034-9.993l.003-.044.02-.113zm-3.087-.022c.235 0 .426.18.448.405v.086l-.217 2.349c-.019.203-.17.364-.363.4l-.085.009H4.241c-.221 0-.405.159-.443.369l-.007.08v2.04c0 .22.159.404.369.443l.08.007h3.832c.235 0 .426.18.447.406v.087l-.213 2.207c-.02.202-.17.362-.363.4l-.085.007H4.214c-.22 0-.404.16-.442.369l-.008.08v5.032c0 .22-.159.405-.369.443l-.08.007H.45c-.221 0-.405-.16-.443-.37L0 20.848V6.52c0-.221.16-.405.369-.443l.08-.007h9.093zm22.005-.003c.22 0 .405.16.443.37l.007.08V17.46c0 .22.159.404.369.442l.08.008h4.977c.235 0 .424.179.447.403v.086l-.22 2.484c-.017.203-.169.365-.362.402l-.085.008h-8.51c-.22 0-.404-.16-.442-.37l-.007-.08V6.518c0-.22.159-.404.369-.442l.08-.008h2.854zm12.338.006c.22 0 .404.159.442.369l.008.08v10.944c0 .222.159.405.369.443l.08.007h4.959c.235 0 .424.18.447.404v.086l-.219 2.47c-.018.203-.17.364-.363.402l-.085.008h-8.501c-.221 0-.405-.16-.443-.37l-.007-.08V6.524c0-.221.159-.405.369-.443l.08-.007h2.864z" transform="translate(-296 -29) translate(-9) translate(305 29)"/>
                </g>
            </g>
        </g>
    </g>
</svg>
